<?xml version="1.0" standalone="no"?>
<!DOCTYPE svg PUBLIC "-//W3C//DTD SVG 20010904//EN"
 "http://www.w3.org/TR/2001/REC-SVG-20010904/DTD/svg10.dtd">
<svg version="1.0" xmlns="http://www.w3.org/2000/svg"
 width="700.000000pt" height="700.000000pt" viewBox="0 0 700.000000 700.000000"
 preserveAspectRatio="xMidYMid meet">
<metadata>
Created by potrace 1.14, written by Peter Selinger 2001-2017
</metadata>
<g transform="translate(0.000000,700.000000) scale(0.100000,-0.100000)"
fill="#000000" stroke="none">
<path d="M566 6109 c-19 -16 -19 -41 -19 -2308 0 -2107 1 -2293 16 -2308 15
-15 70 -17 547 -17 l530 -1 1 -255 c0 -140 0 -277 -1 -303 -1 -30 5 -57 14
-73 l16 -24 1885 0 1884 0 15 22 c14 20 16 167 16 1371 l0 1348 508 507 c549
548 560 560 565 668 3 56 -14 122 -42 168 -11 17 -120 130 -243 251 -243 240
-265 255 -374 255 -100 0 -137 -21 -281 -163 l-133 -130 0 156 c0 144 -2 159
-20 177 -19 19 -33 20 -548 20 l-527 0 0 310 c0 283 -2 311 -18 327 -17 17
-111 18 -1894 18 -1702 0 -1879 -1 -1897 -16z"/>
</g>
</svg>
